:FULLY-SPECIFIED
:FORCE-ALL-JOINTS-BE-3DOF
:DEGREES
204
root 4.93096 15.0896 -25.4742 7.0289 0.075269 5.37781
lfemur 6.04007 -0.0909583 -0.163855
ltibia 7.18558 0 0
lfoot -34.7127 -10.6845 0
ltoes 46.2046 0 0
rfemur -31.6016 -19.5368 -8.22185
rtibia 52.3219 0 0
rfoot -24.7583 16.2284 0
rtoes 59.5243 0 0
lowerback -2.70525 -1.6582 -0.544043
upperback -0.654446 -2.14085 -7.3614
thorax 0.627005 -1.08126 -7.42989
lowerneck -11.3301 -0.00212017 6.53787
upperneck 3.77397 -1.13088 2.519
head 3.24215 -0.341134 -0.394875
lclavicle -7.97077e-15 -5.93057e-14 0
lhumerus -58.8361 -46.7621 116.388
lradius 53.9035 0 0
lwrist 24.707 0 0
lhand 40.533 29.3482 0
lfingers 7.12502 0 0
lthumb 62.833 39.7454 0
rclavicle -7.97077e-15 -5.93057e-14 0
rhumerus -4.7116 -26.5492 -17.0404
rradius 55.4217 0 0
rwrist -21.5839 0 0
rhand -37.5775 -58.2005 0
rfingers 7.12502 0 0
rthumb -10.631 -447.888 0
205
root 4.88465 15.0624 -25.4673 7.12192 -0.76868 5.49507
lfemur 6.85557 -0.905434 0.320298
ltibia 6.37404 0 0
lfoot -35.4425 -11.2688 0
ltoes 46.5789 0 0
rfemur -31.7047 -19.8346 -8.35225
rtibia 51.733 0 0
rfoot -25.6522 17.3107 0
rtoes 59.9047 0 0
lowerback -2.84102 -1.52841 -0.50211
upperback -0.672673 -1.96406 -7.51587
thorax 0.675445 -0.993573 -7.62424
lowerneck -11.3669 0.174243 6.76513
upperneck 3.82363 -0.924982 2.4428
head 3.25561 -0.23721 -0.447827
lclavicle -9.10409e-15 -6.06632e-14 0
lhumerus -59.128 -46.9126 116.458
lradius 53.9624 0 0
lwrist 25.0144 0 0
lhand 40.6124 29.4973 0
lfingers 7.12502 0 0
lthumb 62.8996 39.8141 0
rclavicle -9.10409e-15 -6.06632e-14 0
rhumerus -3.52156 -26.6984 -15.5478
rradius 54.4528 0 0
rwrist -21.6827 0 0
rhand -37.9421 -59.1675 0
rfingers 7.12502 0 0
rthumb -10.983 -448.848 0
206
root 4.83833 15.0352 -25.4604 7.21493 -1.61263 5.61233
lfemur 7.67108 -1.71991 0.80445
ltibia 5.56251 0 0
lfoot -36.1723 -11.8531 0
ltoes 46.9532 0 0
rfemur -31.8077 -20.1323 -8.48266
rtibia 51.1441 0 0
rfoot -26.5461 18.393 0
rtoes 60.2851 0 0
lowerback -2.9768 -1.39862 -0.460177
upperback -0.690901 -1.78726 -7.67034
thorax 0.723885 -0.905881 -7.81859
lowerneck -11.4038 0.350607 6.99238
upperneck 3.87329 -0.719088 2.3666
head 3.26906 -0.133286 -0.50078
lclavicle -1.02374e-14 -6.20208e-14 0
lhumerus -59.4198 -47.063 116.529
lradius 54.0214 0 0
lwrist 25.3219 0 0
lhand 40.6919 29.6464 0
lfingers 7.12502 0 0
lthumb 62.9662 39.8829 0
rclavicle -1.02374e-14 -6.20208e-14 0
rhumerus -2.33153 -26.8475 -14.0552
rradius 53.4839 0 0
rwrist -21.7815 0 0
rhand -38.3067 -60.1346 0
rfingers 7.12502 0 0
rthumb -11.335 -449.808 0
207
root 4.88107 15.0581 -25.4665 7.25181 -0.59481 5.35065
lfemur 6.51341 -1.02588 0.446498
ltibia 6.59124 0 0
lfoot -35.7348 -11.5494 0
ltoes 46.6356 0 0
rfemur -31.2662 -19.5587 -8.19337
rtibia 50.8438 0 0
rfoot -26.7867 17.1954 0
rtoes 60.1488 0 0
lowerback -2.90051 -1.4374 -0.406347
upperback -0.707222 -1.83912 -7.40008
thorax 0.673095 -0.93135 -7.56516
lowerneck -11.3634 0.209715 6.81438
upperneck 3.83372 -0.87763 2.32444
head 3.24859 -0.217171 -0.49124
lclavicle -1.05222e-14 -6.00911e-14 0
lhumerus -59.3136 -46.7184 116.665
lradius 54.2311 0 0
lwrist 25.1203 0 0
lhand 39.8124 29.2247 0
lfingers 7.12502 0 0
lthumb 62.1626 39.8843 0
rclavicle -1.05222e-14 -6.00911e-14 0
rhumerus -3.25296 -26.595 -15.2708
rradius 53.6712 0 0
rwrist -20.8779 0 0
rhand -37.7652 -59.292 0
rfingers 7.12502 0 0
rthumb -10.8122 -457.747 0
208
root 4.92381 15.0809 -25.4726 7.28869 0.42301 5.08897
lfemur 5.35574 -0.331841 0.0885451
ltibia 7.61997 0 0
lfoot -35.2973 -11.2456 0
ltoes 46.3179 0 0
rfemur -30.7246 -18.9852 -7.90408
rtibia 50.5434 0 0
rfoot -27.0273 15.9979 0
rtoes 60.0125 0 0
lowerback -2.82423 -1.47618 -0.352517
upperback -0.723544 -1.89098 -7.12982
thorax 0.622304 -0.956819 -7.31173
lowerneck -11.323 0.0688237 6.63637
upperneck 3.79415 -1.03617 2.28228
head 3.22811 -0.301056 -0.4817
lclavicle -1.08071e-14 -5.81615e-14 0
lhumerus -59.2075 -46.3739 116.8
lradius 54.4408 0 0
lwrist 24.9187 0 0
lhand 38.9328 28.8031 0
lfingers 7.12502 0 0
lthumb 61.359 39.8858 0
rclavicle -1.08071e-14 -5.81615e-14 0
rhumerus -4.17438 -26.3425 -16.4864
rradius 53.8584 0 0
rwrist -19.9743 0 0
rhand -37.2237 -58.4494 0
rfingers 7.12502 0 0
rthumb -10.2894 -465.687 0
209
root 4.96655 15.1038 -25.4786 7.32557 1.44083 4.8273
lfemur 4.19807 0.362193 -0.269407
ltibia 8.6487 0 0
lfoot -34.8599 -10.9419 0
ltoes 46.0003 0 0
rfemur -30.1831 -18.4116 -7.61479
rtibia 50.2431 0 0
rfoot -27.268 14.8003 0
rtoes 59.8762 0 0
lowerback -2.74794 -1.51496 -0.298687
upperback -0.739865 -1.94283 -6.85955
thorax 0.571514 -0.982289 -7.0583
lowerneck -11.2826 -0.0720679 6.45837
upperneck 3.75457 -1.19472 2.24013
head 3.20764 -0.384941 -0.472159
lclavicle -1.10919e-14 -5.62318e-14 0
lhumerus -59.1013 -46.0293 116.936
lradius 54.6505 0 0
lwrist 24.7172 0 0
lhand 38.0533 28.3814 0
lfingers 7.12502 0 0
lthumb 60.5553 39.8872 0
rclavicle -1.10919e-14 -5.62318e-14 0
rhumerus -5.09581 -26.09 -17.7019
rradius 54.0457 0 0
rwrist -19.0707 0 0
rhand -36.6822 -57.6067 0
rfingers 7.12502 0 0
rthumb -9.76664 -473.626 0
210
root 5.00929 15.1266 -25.4847 7.36245 2.45865 4.56562
lfemur 3.0404 1.05623 -0.62736
ltibia 9.67743 0 0
lfoot -34.4224 -10.6381 0
ltoes 45.6827 0 0
rfemur -29.6415 -17.838 -7.3255
rtibia 49.9428 0 0
rfoot -27.5086 13.6027 0
rtoes 59.7399 0 0
lowerback -2.67166 -1.55374 -0.244857
upperback -0.756187 -1.99469 -6.58929
thorax 0.520724 -1.00776 -6.80487
lowerneck -11.2422 -0.21296 6.28036
upperneck 3.715 -1.35326 2.19797
head 3.18717 -0.468826 -0.462619
lclavicle -1.13768e-14 -5.43021e-14 0
lhumerus -58.9951 -45.6848 117.071
lradius 54.8602 0 0
lwrist 24.5156 0 0
lhand 37.1737 27.9597 0
lfingers 7.12502 0 0
lthumb 59.7517 39.8887 0
rclavicle -1.13768e-14 -5.43021e-14 0
rhumerus -6.01723 -25.8375 -18.9175
rradius 54.2329 0 0
rwrist -18.1671 0 0
rhand -36.1407 -56.7641 0
rfingers 7.12502 0 0
rthumb -9.24386 -481.566 0
211
root 5.05203 15.1495 -25.4908 7.39932 3.47647 4.30394
lfemur 1.88273 1.75026 -0.985312
ltibia 10.7062 0 0
lfoot -33.9849 -10.3344 0
ltoes 45.3651 0 0
rfemur -29.1 -17.2644 -7.03621
rtibia 49.6425 0 0
rfoot -27.7492 12.4051 0
rtoes 59.6035 0 0
lowerback -2.59537 -1.59252 -0.191027
upperback -0.772508 -2.04655 -6.31903
thorax 0.469933 -1.03323 -6.55144
lowerneck -11.2019 -0.353851 6.10236
upperneck 3.67543 -1.5118 2.15581
head 3.16669 -0.552711 -0.453079
lclavicle -1.16616e-14 -5.23725e-14 0
lhumerus -58.8889 -45.3402 117.207
lradius 55.0699 0 0
lwrist 24.314 0 0
lhand 36.2942 27.5381 0
lfingers 7.12502 0 0
lthumb 58.9481 39.8901 0
rclavicle -1.16616e-14 -5.23725e-14 0
rhumerus -6.93866 -25.5851 -20.1331
rradius 54.4202 0 0
rwrist -17.2635 0 0
rhand -35.5991 -55.9215 0
rfingers 7.12502 0 0
rthumb -8.72107 -489.505 0
212
root 5.09476 15.1723 -25.4969 7.4362 4.49429 4.04226
lfemur 0.725059 2.4443 -1.34326
ltibia 11.7349 0 0
lfoot -33.5474 -10.0306 0
ltoes 45.0474 0 0
rfemur -28.5585 -16.6909 -6.74692
rtibia 49.3421 0 0
rfoot -27.9898 11.2076 0
rtoes 59.4672 0 0
lowerback -2.51909 -1.63129 -0.137197
upperback -0.78883 -2.09841 -6.04877
thorax 0.419143 -1.0587 -6.298
lowerneck -11.1615 -0.494743 5.92435
upperneck 3.63586 -1.67034 2.11365
head 3.14622 -0.636596 -0.443539
lclavicle -1.19465e-14 -5.04428e-14 0
lhumerus -58.7828 -44.9956 117.343
lradius 55.2796 0 0
lwrist 24.1124 0 0
lhand 35.4147 27.1164 0
lfingers 7.12502 0 0
lthumb 58.1445 39.8916 0
rclavicle -1.19465e-14 -5.04428e-14 0
rhumerus -7.86009 -25.3326 -21.3487
rradius 54.6075 0 0
rwrist -16.3599 0 0
rhand -35.0576 -55.0789 0
rfingers 7.12502 0 0
rthumb -8.19829 -497.445 0
213
root 5.1375 15.1952 -25.503 7.47308 5.51211 3.78059
lfemur -0.432612 3.13833 -1.70122
ltibia 12.7636 0 0
lfoot -33.11 -9.72685 0
ltoes 44.7298 0 0
rfemur -28.0169 -16.1173 -6.45763
rtibia 49.0418 0 0
rfoot -28.2305 10.01 0
rtoes 59.3309 0 0
lowerback -2.4428 -1.67007 -0.0833675
upperback -0.805151 -2.15026 -5.77851
thorax 0.368352 -1.08417 -6.04457
lowerneck -11.1211 -0.635634 5.74635
upperneck 3.59629 -1.82889 2.07149
head 3.12575 -0.720481 -0.433998
lclavicle -1.22313e-14 -4.85131e-14 0
lhumerus -58.6766 -44.6511 117.478
lradius 55.4892 0 0
lwrist 23.9108 0 0
lhand 34.5351 26.6948 0
lfingers 7.12502 0 0
lthumb 57.3408 39.893 0
rclavicle -1.22313e-14 -4.85131e-14 0
rhumerus -8.78151 -25.0801 -22.5643
rradius 54.7947 0 0
rwrist -15.4563 0 0
rhand -34.5161 -54.2362 0
rfingers 7.12502 0 0
rthumb -7.6755 -505.384 0
214
root 5.18024 15.218 -25.509 7.50996 6.52993 3.51891
lfemur -1.59028 3.83237 -2.05917
ltibia 13.7923 0 0
lfoot -32.6725 -9.42311 0
ltoes 44.4122 0 0
rfemur -27.4754 -15.5437 -6.16834
rtibia 48.7415 0 0
rfoot -28.4711 8.81243 0
rtoes 59.1946 0 0
lowerback -2.36652 -1.70885 -0.0295376
upperback -0.821473 -2.20212 -5.50824
thorax 0.317562 -1.10963 -5.79114
lowerneck -11.0807 -0.776526 5.56835
upperneck 3.55671 -1.98743 2.02934
head 3.10527 -0.804366 -0.424458
lclavicle -1.25162e-14 -4.65835e-14 0
lhumerus -58.5704 -44.3065 117.614
lradius 55.6989 0 0
lwrist 23.7092 0 0
lhand 33.6556 26.2731 0
lfingers 7.12502 0 0
lthumb 56.5372 39.8945 0
rclavicle -1.25162e-14 -4.65835e-14 0
rhumerus -9.70294 -24.8276 -23.7798
rradius 54.982 0 0
rwrist -14.5527 0 0
rhand -33.9746 -53.3936 0
rfingers 7.12502 0 0
rthumb -7.15272 -513.324 0
215
root 5.22298 15.2409 -25.5151 7.54684 7.54775 3.25723
lfemur -2.74795 4.5264 -2.41712
ltibia 14.8211 0 0
lfoot -32.235 -9.11936 0
ltoes 44.0945 0 0
rfemur -26.9338 -14.9702 -5.87905
rtibia 48.4412 0 0
rfoot -28.7117 7.61486 0
rtoes 59.0583 0 0
lowerback -2.29023 -1.74763 0.0242923
upperback -0.837794 -2.25398 -5.23798
thorax 0.266772 -1.1351 -5.53771
lowerneck -11.0403 -0.917418 5.39034
upperneck 3.51714 -2.14597 1.98718
head 3.0848 -0.888251 -0.414918
lclavicle -1.2801e-14 -4.46538e-14 0
lhumerus -58.4643 -43.962 117.749
lradius 55.9086 0 0
lwrist 23.5077 0 0
lhand 32.776 25.8514 0
lfingers 7.12502 0 0
lthumb 55.7336 39.8959 0
rclavicle -1.2801e-14 -4.46538e-14 0
rhumerus -10.6244 -24.5751 -24.9954
rradius 55.1692 0 0
rwrist -13.6491 0 0
rhand -33.4331 -52.551 0
rfingers 7.12502 0 0
rthumb -6.62993 -521.263 0
216
root 5.26572 15.2637 -25.5212 7.58372 8.56557 2.99555
lfemur -3.90562 5.22043 -2.77507
ltibia 15.8498 0 0
lfoot -31.7975 -8.81561 0
ltoes 43.7769 0 0
rfemur -26.3923 -14.3966 -5.58976
rtibia 48.1408 0 0
rfoot -28.9523 6.41729 0
rtoes 58.922 0 0
lowerback -2.21394 -1.78641 0.0781223
upperback -0.854115 -2.30584 -4.96772
thorax 0.215981 -1.16057 -5.28428
lowerneck -10.9999 -1.05831 5.21234
upperneck 3.47757 -2.30451 1.94502
head 3.06433 -0.972136 -0.405378
lclavicle -1.30858e-14 -4.27241e-14 0
lhumerus -58.3581 -43.6174 117.885
lradius 56.1183 0 0
lwrist 23.3061 0 0
lhand 31.8965 25.4298 0
lfingers 7.12502 0 0
lthumb 54.93 39.8974 0
rclavicle -1.30858e-14 -4.27241e-14 0
rhumerus -11.5458 -24.3226 -26.211
rradius 55.3565 0 0
rwrist -12.7455 0 0
rhand -32.8916 -51.7084 0
rfingers 7.12502 0 0
rthumb -6.10715 -529.202 0
217
root 5.30846 15.2866 -25.5273 7.6206 9.58339 2.73387
lfemur -5.06329 5.91447 -3.13303
ltibia 16.8785 0 0
lfoot -31.3601 -8.51186 0
ltoes 43.4593 0 0
rfemur -25.8508 -13.823 -5.30048
rtibia 47.8405 0 0
rfoot -29.193 5.21972 0
rtoes 58.7857 0 0
lowerback -2.13766 -1.82519 0.131952
upperback -0.870437 -2.3577 -4.69746
thorax 0.165191 -1.18604 -5.03085
lowerneck -10.9595 -1.1992 5.03433
upperneck 3.438 -2.46306 1.90286
head 3.04386 -1.05602 -0.395838
lclavicle -1.33707e-14 -4.07945e-14 0
lhumerus -58.2519 -43.2728 118.02
lradius 56.328 0 0
lwrist 23.1045 0 0
lhand 31.017 25.0081 0
lfingers 7.12502 0 0
lthumb 54.1264 39.8988 0
rclavicle -1.33707e-14 -4.07945e-14 0
rhumerus -12.4672 -24.0701 -27.4266
rradius 55.5438 0 0
rwrist -11.8419 0 0
rhand -32.3501 -50.8658 0
rfingers 7.12502 0 0
rthumb -5.58436 -537.142 0
